<svg width="25" height="24" viewBox="0 0 25 24" fill="none" xmlns="http://www.w3.org/2000/svg">
<g clip-path="url(#clip0_319_3320)">
<path d="M12.5 2C8.08 2 4.5 2.5 4.5 6V15.5C4.5 17.43 6.07 19 8 19L6.85 20.15C6.54 20.46 6.76 21 7.21 21H17.8C18.25 21 18.47 20.46 18.15 20.15L17 19C18.93 19 20.5 17.43 20.5 15.5V6C20.5 2.5 16.92 2 12.5 2ZM8 17C7.17 17 6.5 16.33 6.5 15.5C6.5 14.67 7.17 14 8 14C8.83 14 9.5 14.67 9.5 15.5C9.5 16.33 8.83 17 8 17ZM11.5 11H6.5V6H11.5V11ZM17 17C16.17 17 15.5 16.33 15.5 15.5C15.5 14.67 16.17 14 17 14C17.83 14 18.5 14.67 18.5 15.5C18.5 16.33 17.83 17 17 17ZM18.5 11H13.5V6H18.5V11Z" fill="#845EC2"/>
</g>
<defs>
<clipPath id="clip0_319_3320">
<rect width="24" height="24" fill="white" transform="translate(0.5)"/>
</clipPath>
</defs>
</svg>
