<svg width="25" height="25" viewBox="0 0 25 25" fill="none" xmlns="http://www.w3.org/2000/svg">
<g clip-path="url(#clip0_502_3646)">
<path d="M9.02783 19.4444C9.02783 20.0555 9.29867 20.6041 9.72228 20.9861V21.8749C9.72228 22.4513 10.1876 22.9166 10.7639 22.9166C11.3403 22.9166 11.8056 22.4513 11.8056 21.8749V21.5277H17.3612V21.8749C17.3612 22.4444 17.8264 22.9166 18.4028 22.9166C18.9723 22.9166 19.4445 22.4513 19.4445 21.8749V20.9861C19.8681 20.6041 20.1389 20.0555 20.1389 19.4444V12.4999C20.1389 10.0694 17.6528 9.72217 14.5834 9.72217C11.5139 9.72217 9.02783 10.0694 9.02783 12.4999V19.4444ZM11.4584 20.1388C10.882 20.1388 10.4167 19.6736 10.4167 19.0972C10.4167 18.5208 10.882 18.0555 11.4584 18.0555C12.0348 18.0555 12.5001 18.5208 12.5001 19.0972C12.5001 19.6736 12.0348 20.1388 11.4584 20.1388ZM17.7084 20.1388C17.132 20.1388 16.6667 19.6736 16.6667 19.0972C16.6667 18.5208 17.132 18.0555 17.7084 18.0555C18.2848 18.0555 18.7501 18.5208 18.7501 19.0972C18.7501 19.6736 18.2848 20.1388 17.7084 20.1388ZM18.7501 15.9722H10.4167V12.4999H18.7501V15.9722Z" fill="#3D3C42"/>
</g>
<g clip-path="url(#clip1_502_3646)">
<path d="M11.1111 11.1109C11.1111 11.722 11.3819 12.2706 11.8055 12.6526V13.5415C11.8055 14.1178 12.2708 14.5831 12.8472 14.5831C13.4236 14.5831 13.8889 14.1178 13.8889 13.5415V13.1942H19.4444V13.5415C19.4444 14.1109 19.9097 14.5831 20.4861 14.5831C21.0555 14.5831 21.5278 14.1178 21.5278 13.5415V12.6526C21.9514 12.2706 22.2222 11.722 22.2222 11.1109V4.16645C22.2222 1.73589 19.7361 1.38867 16.6666 1.38867C13.5972 1.38867 11.1111 1.73589 11.1111 4.16645V11.1109ZM13.5416 11.8053C12.9653 11.8053 12.5 11.3401 12.5 10.7637C12.5 10.1873 12.9653 9.72201 13.5416 9.72201C14.118 9.72201 14.5833 10.1873 14.5833 10.7637C14.5833 11.3401 14.118 11.8053 13.5416 11.8053ZM19.7916 11.8053C19.2153 11.8053 18.75 11.3401 18.75 10.7637C18.75 10.1873 19.2153 9.72201 19.7916 9.72201C20.368 9.72201 20.8333 10.1873 20.8333 10.7637C20.8333 11.3401 20.368 11.8053 19.7916 11.8053ZM20.8333 7.63867H12.5V4.16645H20.8333V7.63867Z" fill="#3D3C42"/>
</g>
<g clip-path="url(#clip2_502_3646)">
<path d="M2.77783 14.5831C2.77783 15.1942 3.04867 15.7428 3.47228 16.1247V17.0136C3.47228 17.59 3.93755 18.0553 4.51394 18.0553C5.09033 18.0553 5.55561 17.59 5.55561 17.0136V16.6664H11.1112V17.0136C11.1112 17.5831 11.5764 18.0553 12.1528 18.0553C12.7223 18.0553 13.1945 17.59 13.1945 17.0136V16.1247C13.6181 15.7428 13.8889 15.1942 13.8889 14.5831V7.63862C13.8889 5.20806 11.4028 4.86084 8.33339 4.86084C5.26394 4.86084 2.77783 5.20806 2.77783 7.63862V14.5831ZM5.20839 15.2775C4.632 15.2775 4.16672 14.8122 4.16672 14.2358C4.16672 13.6595 4.632 13.1942 5.20839 13.1942C5.78478 13.1942 6.25005 13.6595 6.25005 14.2358C6.25005 14.8122 5.78478 15.2775 5.20839 15.2775ZM11.4584 15.2775C10.882 15.2775 10.4167 14.8122 10.4167 14.2358C10.4167 13.6595 10.882 13.1942 11.4584 13.1942C12.0348 13.1942 12.5001 13.6595 12.5001 14.2358C12.5001 14.8122 12.0348 15.2775 11.4584 15.2775ZM12.5001 11.1108H4.16672V7.63862H12.5001V11.1108Z" fill="#3D3C42"/>
</g>
<defs>
<clipPath id="clip0_502_3646">
<rect width="16.6667" height="16.6667" fill="white" transform="translate(6.25 8.3335)"/>
</clipPath>
<clipPath id="clip1_502_3646">
<rect width="16.6667" height="16.6667" fill="white" transform="translate(8.33325)"/>
</clipPath>
<clipPath id="clip2_502_3646">
<rect width="16.6667" height="16.6667" fill="white" transform="translate(0 3.47217)"/>
</clipPath>
</defs>
</svg>
