<svg width="25" height="24" viewBox="0 0 25 24" fill="none" xmlns="http://www.w3.org/2000/svg">
<g clip-path="url(#clip0_319_3317)">
<path fill-rule="evenodd" clip-rule="evenodd" d="M6.5 20H18.5C19.05 20 19.5 20.45 19.5 21C19.5 21.55 19.05 22 18.5 22H6.5C5.95 22 5.5 21.55 5.5 21C5.5 20.45 5.95 20 6.5 20ZM12.5 7C11.4 7 10.5 7.9 10.5 9C10.5 10.1 11.4 11 12.5 11C13.0304 11 13.5391 10.7893 13.9142 10.4142C14.2893 10.0391 14.5 9.53043 14.5 9C14.5 8.46957 14.2893 7.96086 13.9142 7.58579C13.5391 7.21071 13.0304 7 12.5 7ZM12.5 2C15.77 2 19.5 4.46 19.5 9.15C19.5 12.13 17.37 15.27 13.11 18.54C12.75 18.82 12.25 18.82 11.89 18.54C7.63 15.26 5.5 12.13 5.5 9.15C5.5 4.46 9.23 2 12.5 2Z" fill="#BABABA"/>
</g>
<defs>
<clipPath id="clip0_319_3317">
<rect width="24" height="24" fill="white" transform="translate(0.5)"/>
</clipPath>
</defs>
</svg>
