<svg width="46" height="46" viewBox="0 0 46 46" fill="none" xmlns="http://www.w3.org/2000/svg">
<g clip-path="url(#clip0_502_3381)">
<path d="M16.2505 16.5537L13.5603 13.9844C13.1264 13.57 13.4115 12.8467 14.0055 12.8425L21.1594 12.6686C21.5364 12.66 21.8353 12.9454 21.844 13.3225L22.0082 20.4671C22.0124 21.0611 21.303 21.3792 20.8691 20.9648L18.1789 18.3955C14.744 21.9921 15.325 27.986 19.8117 30.7592C22.4333 32.3964 25.8923 32.3075 28.4267 30.5611C32.4375 27.8095 33.0036 22.487 30.254 18.9761C29.8556 18.4665 29.8856 17.7208 30.3369 17.2484C30.8894 16.6698 31.8425 16.6951 32.3473 17.3247C36.0093 21.9653 35.2938 28.9887 30.0509 32.7022C26.5895 35.1489 21.8578 35.2577 18.2877 32.9727C12.4295 29.2031 11.7013 21.317 16.2505 16.5537Z" fill="#3D3C42"/>
</g>
<defs>
<clipPath id="clip0_502_3381">
<rect width="32" height="32" fill="white" transform="matrix(-0.690668 0.723172 0.723172 0.690668 22.48 0.378418)"/>
</clipPath>
</defs>
</svg>
