<svg width="20" height="16" viewBox="0 0 20 16" fill="none" xmlns="http://www.w3.org/2000/svg">
<g clip-path="url(#clip0_502_3640)">
<path d="M6.99992 8.99984C7.64159 8.99984 8.16659 8.47484 8.16659 7.83317C8.16659 7.1915 7.64159 6.6665 6.99992 6.6665C6.35825 6.6665 5.83325 7.1915 5.83325 7.83317C5.83325 8.47484 6.35825 8.99984 6.99992 8.99984ZM6.99992 3.1665C9.44992 3.1665 11.6666 5.04484 11.6666 7.94984C11.6666 9.80484 10.2374 11.9865 7.38492 14.5007C7.16325 14.6932 6.83075 14.6932 6.60909 14.5007C3.76242 11.9865 2.33325 9.80484 2.33325 7.94984C2.33325 5.04484 4.54992 3.1665 6.99992 3.1665Z" fill="#3D3C42"/>
</g>
<g clip-path="url(#clip1_502_3640)">
<path d="M12.9999 6.99984C13.6416 6.99984 14.1666 6.47484 14.1666 5.83317C14.1666 5.1915 13.6416 4.6665 12.9999 4.6665C12.3583 4.6665 11.8333 5.1915 11.8333 5.83317C11.8333 6.47484 12.3583 6.99984 12.9999 6.99984ZM12.9999 1.1665C15.4499 1.1665 17.6666 3.04484 17.6666 5.94984C17.6666 7.80484 16.2374 9.9865 13.3849 12.5007C13.1633 12.6932 12.8308 12.6932 12.6091 12.5007C9.76242 9.9865 8.33325 7.80484 8.33325 5.94984C8.33325 3.04484 10.5499 1.1665 12.9999 1.1665Z" fill="#3D3C42"/>
</g>
<defs>
<clipPath id="clip0_502_3640">
<rect width="14" height="14" fill="white" transform="translate(0 2)"/>
</clipPath>
<clipPath id="clip1_502_3640">
<rect width="14" height="14" fill="white" transform="translate(6)"/>
</clipPath>
</defs>
</svg>
